<?xml version="1.0" encoding="UTF-8"?>
<!-- Created with Inkscape (http://www.inkscape.org/) -->
<svg width="48" height="48" version="1.1" viewBox="0 0 12.7 12.7" xmlns="http://www.w3.org/2000/svg">
 <g transform="translate(-77.198 -96.332)">
  <rect x="77.198" y="96.332" width="12.7" height="12.7" fill="none" style="paint-order:stroke fill markers"/>
  <path d="m84.653 97.92a0.12119 0.12119 0 0 0-0.08351 0.01865h-0.0017a0.12119 0.12119 0 0 0-0.05151 0.0831l-1.0491 7.2706c-0.34576-0.34741-0.91831-0.49696-1.5547-0.29833-0.42773 0.13351-0.78834 0.37764-1.03 0.67225-0.24165 0.29463-0.36693 0.64703-0.29375 0.98471 0.07308 0.33738 0.33262 0.58373 0.66893 0.70343 0.33631 0.1197 0.75291 0.12235 1.1808-0.0113 0.65115-0.20326 1.1562-0.65866 1.305-1.1696a0.12119 0.12119 0 0 0 0.0017-6e-3v-6e-3l0.0017-3e-3c0.02585-0.0922 0.04095-0.18661 0.04071-0.28254l0.0063-0.0378 0.70051-4.8637c0.54809 0.27047 0.96156 0.56915 1.1713 0.89703 0.23483 0.36718 0.30262 0.7586 0.27671 1.1604-0.05181 0.8037-0.4937 1.628-0.72253 2.2187a0.12119 0.12119 0 0 0 0.20567 0.12257c0.01134-0.0136 0.0075-0.0227 0.0187-0.0362l0.0017 2e-3c1e-3 -2e-3 0.0023-8e-3 0.0034-0.0113 0.60627-0.73304 0.93374-1.3795 1.0379-1.9723 0.10654-0.60642-0.0023-1.1565-0.204-1.6865-0.40214-1.0566-1.1564-2.0507-1.3994-3.3966-7.2e-4 -0.06433 0.0108-0.1153 0.027-0.18365a0.12119 0.12119 0 0 0-0.10059-0.1472z" color="#000000" fill="#258385" style="-inkscape-stroke:none"/>
 </g>
</svg>
